HIERARCHY
ROOT Hips
{
	OFFSET 0.000000 0.000000 0.000000 
	CHANNELS 6 Xposition Yposition Zposition Zrotation Yrotation Xrotation
	JOINT LHipJoint
	{
		OFFSET 0.000000 0.000000 0.000000 
		CHANNELS 3 Zrotation Yrotation Xrotation
		JOINT LeftUpLeg
		{
			OFFSET 0.086425 -0.122859 0.034017 
			CHANNELS 3 Zrotation Yrotation Xrotation
			JOINT LeftLeg
			{
				OFFSET 0.170060 -0.467236 0.000000 
				CHANNELS 3 Zrotation Yrotation Xrotation
				JOINT LeftFoot
				{
					OFFSET 0.170651 -0.468860 0.000000 
					CHANNELS 3 Zrotation Yrotation Xrotation
					JOINT LeftToeBase
					{
						OFFSET 0.010094 -0.027732 0.136269 
						CHANNELS 3 Zrotation Yrotation Xrotation
						End Site
						{
							OFFSET 0.000000 -0.000000 0.070079 
						}
					}
				}
			}
		}
	}
	JOINT RHipJoint
	{
		OFFSET 0.000000 0.000000 0.000000 
		CHANNELS 3 Zrotation Yrotation Xrotation
		JOINT RightUpLeg
		{
			OFFSET -0.098265 -0.122859 0.034017 
			CHANNELS 3 Zrotation Yrotation Xrotation
			JOINT RightLeg
			{
				OFFSET -0.184959 -0.508173 0.000000 
				CHANNELS 3 Zrotation Yrotation Xrotation
				JOINT RightFoot
				{
					OFFSET -0.157716 -0.433319 0.000000 
					CHANNELS 3 Zrotation Yrotation Xrotation
					JOINT RightToeBase
					{
						OFFSET -0.002797 -0.006357 0.116680 
						CHANNELS 3 Zrotation Yrotation Xrotation
						End Site
						{
							OFFSET -0.000000 -0.000000 0.059473 
						}
					}
				}
			}
		}
	}
	JOINT LowerBack
	{
		OFFSET 0.000000 0.000000 0.000000 
		CHANNELS 3 Zrotation Yrotation Xrotation
		JOINT Spine
		{
			OFFSET 0.000418 0.129604 0.005690 
			CHANNELS 3 Zrotation Yrotation Xrotation
			JOINT Spine1
			{
				OFFSET -0.000415 0.128874 -0.002958 
				CHANNELS 3 Zrotation Yrotation Xrotation
				JOINT Neck
				{
					OFFSET 0.000000 0.000000 0.000000 
					CHANNELS 3 Zrotation Yrotation Xrotation
					JOINT Neck1
					{
						OFFSET -0.000013 0.093718 0.010216 
						CHANNELS 3 Zrotation Yrotation Xrotation
						JOINT Head
						{
							OFFSET 0.003800 0.094104 -0.016689 
							CHANNELS 3 Zrotation Yrotation Xrotation
							End Site
							{
								OFFSET 0.001079 0.097794 -0.007409 
							}
						}
					}
				}
				JOINT LeftShoulder
				{
					OFFSET 0.000000 0.000000 0.000000 
					CHANNELS 3 Zrotation Yrotation Xrotation
					JOINT LeftArm
					{
						OFFSET 0.196871 0.051833 -0.014055 
						CHANNELS 3 Zrotation Yrotation Xrotation
						JOINT LeftForeArm
						{
							OFFSET 0.355148 -0.000000 -0.000000 
							CHANNELS 3 Zrotation Yrotation Xrotation
							JOINT LeftHand
							{
								OFFSET 0.198195 -0.000000 0.000000 
								CHANNELS 3 Zrotation Yrotation Xrotation
								JOINT LeftFingerBase
								{
									OFFSET 0.000000 0.000000 0.000000 
									CHANNELS 3 Zrotation Yrotation Xrotation
									JOINT LeftHandIndex1
									{
										OFFSET 0.039543 -0.000000 0.000000 
										CHANNELS 3 Zrotation Yrotation Xrotation
										End Site
										{
											OFFSET 0.031881 -0.000000 0.000000 
										}
									}
								}
								JOINT LThumb
								{
									OFFSET 0.000000 0.000000 0.000000 
									CHANNELS 3 Zrotation Yrotation Xrotation
									End Site
									{
										OFFSET 0.032368 -0.000000 0.032368 
									}
								}
							}
						}
					}
				}
				JOINT RightShoulder
				{
					OFFSET 0.000000 0.000000 0.000000 
					CHANNELS 3 Zrotation Yrotation Xrotation
					JOINT RightArm
					{
						OFFSET -0.194107 0.057049 -0.020834 
						CHANNELS 3 Zrotation Yrotation Xrotation
						JOINT RightForeArm
						{
							OFFSET -0.366950 -0.000000 -0.000000 
							CHANNELS 3 Zrotation Yrotation Xrotation
							JOINT RightHand
							{
								OFFSET -0.210993 -0.000000 0.000000 
								CHANNELS 3 Zrotation Yrotation Xrotation
								JOINT RightFingerBase
								{
									OFFSET 0.000000 0.000000 0.000000 
									CHANNELS 3 Zrotation Yrotation Xrotation
									JOINT RightHandIndex1
									{
										OFFSET -0.037704 -0.000000 0.000000 
										CHANNELS 3 Zrotation Yrotation Xrotation
										End Site
										{
											OFFSET -0.030398 -0.000000 0.000000 
										}
									}
								}
								JOINT RThumb
								{
									OFFSET 0.000000 0.000000 0.000000 
									CHANNELS 3 Zrotation Yrotation Xrotation
									End Site
									{
										OFFSET -0.030862 -0.000000 0.030862 
									}
								}
							}
						}
					}
				}
			}
		}
	}
}
MOTION
Frames: 10
Frame Time: 0.033502
0.000000 1.018000 -0.000306 0.000000 0.000000 40.699978 0.000000 0.000000 0.000000 -7.103600 -9.924900 -63.139000 15.268300 19.454500 76.043602 0.368800 -11.840900 -12.755200 1.512700 -7.767400 -22.009800 0.000000 0.000000 0.000000 7.876500 23.004400 -56.166302 -14.503200 -19.259600 73.735603 0.295300 12.259400 -3.680000 -0.838200 5.840100 -16.321100 -1.264500 1.583200 3.001300 0.210600 2.067400 -1.093100 0.811500 1.056200 -2.857600 -3.457600 -1.575600 -26.847401 4.277800 -1.600100 11.214600 1.783400 -0.432700 7.826800 -0.000000 -0.000000 0.000000 24.183201 -69.930099 -63.224201 110.498596 -58.351200 -77.653999 -0.000000 0.000000 -45.462799 11.548000 31.483200 6.090900 -7.125000 0.000000 -0.000000 -23.484301 60.429699 -9.130900 -0.000000 -0.000000 0.000000 -33.186699 77.143700 -77.490097 -106.221497 58.981998 -74.000198 0.000000 -0.000000 -22.105801 -30.057400 25.359400 -13.920200 7.125000 -0.000000 -0.000000 -0.236200 -1.274500 -0.230900 
0.000000 1.084606 -0.000044 0.000000 0.000000 40.699978 0.000000 0.000000 0.000000 -9.760000 -8.247300 -48.348301 11.125300 17.995899 63.188000 -0.000100 -5.141700 -3.599300 0.422000 -4.169600 -11.554200 0.000000 0.000000 0.000000 11.131700 20.347900 -42.259899 -10.583000 -17.724899 61.419800 0.002800 2.533800 3.429300 -0.947700 6.199700 -17.365000 -1.486500 1.609200 -0.465100 0.571700 2.162300 -1.573100 1.399300 1.110600 -1.427800 -2.999600 -1.003700 -22.597401 3.178500 -1.081600 17.145300 1.436200 -0.333400 9.133700 0.000000 0.000000 0.000000 4.467800 -70.940002 -44.063400 122.646301 -55.562500 -87.851303 -0.000000 0.000000 -43.172100 9.828000 30.951099 5.091300 -7.125000 0.000000 -0.000000 -24.817200 59.549400 -9.160700 0.000000 0.000000 0.000000 -7.707200 77.824303 -50.902401 -117.610100 56.913898 -83.663300 0.000000 -0.000000 -20.788200 -31.649300 27.086100 -15.677300 7.125000 -0.000000 -0.000000 -0.878200 1.013200 -0.893700 
0.000000 1.159806 -0.001956 0.000000 0.000000 40.699978 0.000000 0.000000 0.000000 -10.977400 -11.061000 -34.549999 7.773800 15.950300 51.743698 -0.161800 8.101900 1.175200 0.139300 -2.405700 -6.628300 0.000000 0.000000 0.000000 12.381700 19.703800 -30.759501 -7.732300 -15.918800 51.592800 -0.127500 -9.864800 8.894400 -1.553100 7.865500 -22.306400 -0.665300 1.137400 -4.134000 0.452100 1.553500 -1.037600 0.915600 0.781600 1.221500 -2.396200 -0.700800 -19.116501 2.354900 -0.671400 22.604500 1.155800 -0.160300 10.421500 -0.000000 0.000000 0.000000 -13.900200 -69.177002 -25.527300 130.498001 -52.792599 -94.223000 -0.000000 0.000000 -43.022999 9.937600 30.498600 5.081300 -7.125000 0.000000 -0.000000 -24.334499 59.167301 -8.744200 -0.000000 0.000000 0.000000 21.618200 76.964203 -21.335501 -123.637802 55.259998 -88.667603 0.000000 -0.000000 -20.547600 -30.462601 28.010700 -15.441500 7.125000 -0.000000 -0.000000 -0.016400 1.700700 -0.016900 
0.000000 1.220269 -0.003969 0.000000 0.000000 40.699978 0.000000 0.000000 0.000000 -11.184300 -15.429300 -29.660801 7.717400 15.907400 51.538399 -0.593900 13.749800 -2.311600 0.504900 -4.555200 -12.644200 0.000000 0.000000 0.000000 12.868000 20.696400 -28.151899 -7.914800 -16.056200 52.255299 -0.389600 -9.419400 12.070900 -1.088800 6.631300 -18.627701 0.205000 0.736100 -4.773100 0.608100 0.991000 -1.616300 0.563700 0.508000 1.008000 -2.880600 -0.425800 -14.396500 2.406700 -0.188000 22.250900 1.307900 0.038400 9.393100 0.000000 -0.000000 0.000000 -25.889200 -64.362999 -13.234800 136.584305 -49.968300 -98.981499 -0.000000 0.000000 -42.991699 12.642400 30.780399 6.548200 -7.125000 0.000000 -0.000000 -21.760799 60.044800 -8.220400 0.000000 -0.000000 0.000000 42.368999 73.973999 0.298700 -127.894302 53.810200 -92.135201 0.000000 -0.000000 -19.286699 -29.989500 28.195101 -15.251900 7.125000 -0.000000 -0.000000 0.292000 1.775400 0.300900 
0.000000 1.265569 -0.004919 0.000000 0.000000 40.699978 0.000000 0.000000 0.000000 -11.745800 -15.336900 -34.826599 10.531600 17.698099 61.250801 -0.756000 15.255000 -4.090800 0.789300 -5.671400 -15.833900 0.000000 0.000000 0.000000 12.054300 19.641399 -34.040100 -10.470600 -17.666100 61.050098 -0.352600 -8.427300 11.313200 -3.138700 10.916300 -31.998199 0.043800 0.782600 -4.608900 0.572700 1.050700 -1.160000 0.622900 0.533000 1.381900 -2.698400 -0.397300 -15.699900 2.086100 -0.135100 21.550600 1.167400 0.028800 9.390400 -0.000000 -0.000000 0.000000 -28.216200 -61.675900 -11.146600 141.098099 -47.405701 -102.373497 -0.000000 0.000000 -41.434101 12.886400 30.978300 6.716000 -7.125000 0.000000 -0.000000 -21.663401 60.284199 -8.306000 -0.000000 -0.000000 0.000000 44.202801 72.085098 3.093700 -131.701096 52.285999 -95.178001 0.000000 -0.000000 -17.983101 -31.141300 27.988199 -15.830900 7.125000 -0.000000 -0.000000 -0.414800 1.856600 -0.428100 
0.000000 1.301706 -0.004400 0.000000 0.000000 40.699978 0.000000 0.000000 0.000000 -11.361000 -13.878600 -42.402500 14.409700 19.233601 73.452003 -0.653200 14.342400 -2.772300 1.461200 -7.639800 -21.625099 0.000000 0.000000 0.000000 12.064300 18.446100 -41.310200 -13.318300 -18.894100 70.111397 -0.355600 -5.813100 10.755000 -3.845700 11.952200 -35.563301 0.643400 1.000500 -3.344100 0.585200 1.300700 0.160600 0.305400 0.654800 2.039500 -3.024800 -0.600200 -19.059799 2.527300 -0.407200 21.513901 1.346500 -0.082900 10.012000 0.000000 0.000000 0.000000 -29.950001 -59.164902 -10.241000 144.251404 -45.339401 -104.656601 -0.000000 0.000000 -41.145599 11.327600 31.204201 5.925200 -7.125000 0.000000 -0.000000 -23.479500 60.124699 -8.957000 0.000000 0.000000 0.000000 44.634899 69.698196 4.190400 -135.243103 50.648800 -97.949402 0.000000 -0.000000 -18.521799 -32.684101 29.158199 -17.359301 7.125000 -0.000000 -0.000000 -1.075300 3.554800 -1.140100 
0.000000 1.328588 -0.003769 0.000000 0.000000 40.699978 0.000000 0.000000 0.000000 -10.732200 -12.791200 -50.608799 18.025900 19.906300 84.219398 -0.281400 10.008500 0.125500 2.101400 -9.074200 -26.027599 0.000000 0.000000 0.000000 12.112400 17.339300 -48.895000 -15.444000 -19.494900 76.570503 -0.264300 -3.187100 9.135900 -4.598500 12.916900 -39.057999 0.890900 1.226300 -1.474100 0.868800 1.605900 1.038900 0.440900 0.810200 1.890000 -4.053600 -0.868600 -20.507099 2.626500 -0.468400 20.838400 1.538700 -0.188500 10.043900 0.000000 0.000000 0.000000 -34.373798 -56.434700 -6.676100 144.924805 -44.865799 -105.133598 -0.000000 0.000000 -40.368900 11.826600 31.706200 6.280200 -7.125000 0.000000 -0.000000 -23.382999 60.698002 -9.239200 0.000000 0.000000 0.000000 47.943001 65.648399 8.880200 -136.615707 49.951900 -99.005501 0.000000 -0.000000 -18.797001 -32.103001 28.060900 -16.442499 7.125000 -0.000000 -0.000000 -0.958500 2.198300 -0.994700 
0.000000 1.344488 -0.003319 0.000000 0.000000 40.699978 0.000000 0.000000 0.000000 -9.501500 -12.390000 -59.569000 20.810600 19.984200 92.370598 -0.036100 6.195100 3.279100 1.966700 -8.796500 -25.160700 0.000000 0.000000 0.000000 12.321700 16.801300 -57.006401 -16.588800 -19.718700 79.981201 -0.162400 -2.476000 7.158300 -5.025200 13.412100 -40.931301 1.318300 1.316100 -0.463600 1.189800 1.734300 1.294500 0.512400 0.880200 1.587800 -4.423000 -0.978800 -20.346500 2.560200 -0.508200 19.772499 1.557800 -0.245000 9.638700 0.000000 -0.000000 0.000000 -40.211899 -53.277599 -0.499200 143.580002 -45.799900 -104.177101 -0.000000 0.000000 -37.836102 12.523500 31.066601 6.539000 -7.125000 0.000000 -0.000000 -22.116699 60.279900 -8.487600 0.000000 -0.000000 0.000000 52.443401 60.748901 14.622400 -134.751801 50.889500 -97.568802 0.000000 -0.000000 -17.067600 -32.988201 29.393299 -17.671200 7.125000 -0.000000 -0.000000 -1.200400 3.898500 -1.279500 
0.000000 1.349569 -0.002762 0.000000 0.000000 40.699978 0.000000 0.000000 0.000000 -9.219800 -12.983800 -67.882202 22.436001 19.857100 97.138702 0.055500 4.759300 5.011000 1.589100 -7.951800 -22.567801 0.000000 0.000000 0.000000 11.307900 16.606701 -64.424599 -16.708099 -19.738199 80.334801 -0.126000 -1.691600 6.328000 -6.308100 14.720400 -46.206200 1.036400 1.344700 0.140000 0.989400 1.786300 1.448600 0.452200 0.903600 1.404800 -4.404200 -1.064800 -20.339899 2.732600 -0.675600 19.631399 1.590000 -0.300700 9.594400 0.000000 0.000000 0.000000 -47.139000 -50.167198 6.818000 140.643799 -47.683800 -102.038300 -0.000000 0.000000 -34.102798 11.514000 30.554701 5.912300 -7.125000 0.000000 -0.000000 -22.756701 59.576698 -8.363500 0.000000 0.000000 0.000000 58.040798 55.026501 20.252300 -131.387497 52.420399 -94.929703 0.000000 -0.000000 -15.731300 -29.817301 31.082899 -16.482599 7.125000 -0.000000 -0.000000 0.932700 4.808300 1.007700 
0.000000 1.342681 -0.001525 0.000000 0.000000 40.699978 0.000000 0.000000 0.000000 -9.163400 -13.812900 -73.556503 22.341101 19.868099 96.859398 0.049800 4.417100 4.706400 1.463800 -7.646300 -21.644699 0.000000 0.000000 0.000000 10.636300 16.193701 -69.348396 -15.509100 -19.509399 76.765503 -0.119900 -0.173000 6.478400 -7.490900 15.731700 -50.707298 0.888500 1.334200 1.402300 0.778200 1.793800 1.837000 0.291900 0.908900 1.097400 -4.526100 -1.279100 -20.130400 2.995800 -1.008000 18.941700 1.648100 -0.434200 9.330000 -0.000000 -0.000000 0.000000 -52.860001 -46.926399 12.766200 136.916702 -49.794201 -99.235603 -0.000000 0.000000 -30.871300 11.434900 30.779301 5.909500 -7.125000 0.000000 -0.000000 -23.018900 59.763302 -8.569800 -0.000000 -0.000000 0.000000 63.302299 49.061298 25.176001 -125.852203 54.537300 -90.479401 0.000000 -0.000000 -13.924400 -28.892000 29.872900 -15.368900 7.125000 -0.000000 -0.000000 1.228400 3.280400 1.297000 
